<?xml version="1.0" encoding="UTF-8"?>
<svg width="25px" height="25px" viewBox="0 0 25 25" version="1.1" xmlns="http://www.w3.org/2000/svg" xmlns:xlink="http://www.w3.org/1999/xlink">
    <!-- Generator: Sketch 50.2 (55047) - http://www.bohemiancoding.com/sketch -->
    <title>Group</title>
    <desc>Created with Sketch.</desc>
    <defs></defs>
    <g id="Page-1" stroke="none" stroke-width="1" fill="none" fill-rule="evenodd">
        <g id="6degrees-web-B會員註冊-撰寫中" transform="translate(-653.000000, -252.000000)" fill="#84B4CC" fill-rule="nonzero">
            <g id="Group" transform="translate(653.000000, 252.000000)">
                <path d="M20,11.5 C20,10.67155 19.417626,10 18.699187,10 L5.30081301,10 C4.58237398,10 4,10.67155 4,11.5 C4,12.32845 4.58237398,13 5.30081301,13 L18.699187,13 C19.417626,13 20,12.32845 20,11.5 Z" id="Shape"></path>
                <path d="M5.0901757,16 C4.48807166,16 4,16.67155 4,17.5 C4,18.32845 4.48807166,19 5.0901757,19 L11.9098243,19 C12.5119283,19 13,18.32845 13,17.5 C13,16.67155 12.5119283,16 11.9098243,16 L5.0901757,16 Z" id="Shape"></path>
                <path d="M9.0473627,21.5572519 L4.92745554,21.5572519 C3.56895604,21.5572519 2.46372777,20.4614351 2.46372777,19.1145038 L2.46372777,4.88549618 C2.46372777,3.53856489 3.56895604,2.44274809 4.92745554,2.44274809 L20.0725445,2.44274809 C21.431044,2.44274809 22.5362722,3.53856489 22.5362722,4.88549618 L22.5362722,12.3969466 C22.5362722,13.0715115 23.0877777,13.6183206 23.7681361,13.6183206 C24.4484945,13.6183206 25,13.0715115 25,12.3969466 L25,4.88549618 C25,2.19163359 22.7895434,0 20.0725445,0 L4.92745554,0 C2.21045655,0 0,2.19163359 0,4.88549618 L0,19.1145038 C0,21.8083664 2.21045655,24 4.92745554,24 L9.0473627,24 C9.72772113,24 10.2792266,23.4531908 10.2792266,22.778626 C10.2792266,22.1040611 9.72772113,21.5572519 9.0473627,21.5572519 Z" id="Shape"></path>
                <path d="M18.699187,4 L5.30081301,4 C4.58237398,4 4,4.67155 4,5.5 C4,6.32845 4.58237398,7 5.30081301,7 L18.699187,7 C19.417626,7 20,6.32845 20,5.5 C20,4.67155 19.417626,4 18.699187,4 Z" id="Shape"></path>
                <path d="M24.5937111,18.0450967 L20.9546125,14.4057352 C20.6930146,14.1440165 20.3441224,14 19.9722431,14 C19.6003637,14 19.2514715,14.1440165 18.9898736,14.4056402 L18.4057902,14.989876 C18.1440973,15.2514996 18,15.6004261 18,15.9723421 C18,16.3442581 18.1440973,16.6932796 18.4057902,16.9548082 L22.0448888,20.5942648 C22.3064867,20.8558885 22.6552839,21 23.0272583,21 C23.3991377,21 23.7480298,20.8558885 24.0096278,20.5942648 L24.5937111,20.010124 C25.1354296,19.4683522 25.1354296,18.5867736 24.5937111,18.0450967 Z" id="Shape"></path>
                <path d="M18.4428201,17.5297087 C18.2876928,17.3745024 18.1655192,17.1950352 18.0789071,17 L15.7561072,18.1834876 C15.2531092,18.4398467 14.7893869,19.0772673 14.7004041,19.634714 L14.0144617,23.9307044 C13.9820612,24.1339583 14.0045045,24.3268598 14.0777613,24.4930507 L17.6439501,20.9268618 C17.5514902,20.7621724 17.5020201,20.575909 17.5020201,20.3819012 C17.5020201,20.0837375 17.6181087,19.8035127 17.8289491,19.5927514 C18.0397104,19.3819901 18.3199352,19.2659014 18.6180198,19.2659014 C18.9161044,19.2659014 19.1963293,19.3819901 19.4071696,19.5927514 C19.6179309,19.8035127 19.7340986,20.0837375 19.7340986,20.3819012 C19.7340986,20.6799858 19.6179309,20.9602896 19.4071696,21.1710509 C19.1963293,21.3818123 18.9161044,21.4979009 18.6180198,21.4979009 C18.424012,21.4979009 18.2377486,21.4484309 18.0730592,21.3559709 L14.5068703,24.9222388 C14.6228009,24.9732103 14.75264,25 14.8907768,25 L14.8908558,25 C14.9491767,25 15.0092362,24.9951794 15.0692956,24.9855383 L19.365286,24.299675 C19.9228117,24.2106131 20.5602324,23.7468908 20.8165914,23.2438928 L22,20.9210929 C21.8049648,20.8344808 21.6255767,20.7123863 21.4703703,20.557259 L18.4428201,17.5297087 Z" id="Shape"></path>
            </g>
        </g>
    </g>
</svg>