<?xml version="1.0" encoding="UTF-8"?>
<svg width="21px" height="20px" viewBox="0 0 21 20" version="1.1" xmlns="http://www.w3.org/2000/svg" xmlns:xlink="http://www.w3.org/1999/xlink">
    <!-- Generator: sketchtool 49.3 (51167) - http://www.bohemiancoding.com/sketch -->
    <title>AC748C7E-D7BE-48D9-AD6A-A405BA41800F@3x</title>
    <desc>Created with sketchtool.</desc>
    <defs></defs>
    <g id="Page-1" stroke="none" stroke-width="1" fill="none" fill-rule="evenodd">
        <g id="首頁" transform="translate(-476.000000, -1300.000000)" fill="#E02E48" fill-rule="nonzero">
            <g id="獎項設置" transform="translate(100.000000, 1164.000000)">
                <g id="Group" transform="translate(0.000000, 134.000000)">
                    <g id="noun_Fire_496325_e02e48" transform="translate(376.000000, 2.000000)">
                        <path d="M9.09210836,16 C9.09210836,16 7.17145802,12.4 11.0135664,10.6 C10.373888,13 11.8745476,12.8155 12.2937307,13.6 C12.7137215,14.3845 11.6532447,16 11.6532447,16 C16.7561332,13.81675 16.4443708,10.35475 14.2143811,7.6 C13.5537032,8.69875 12.0901967,9.4285 12.0901967,9.4285 C12.0901967,9.4285 12.9431011,7.9255 12.9342167,6.4 C11.8034722,5.251 11.0135664,4.6 9.09210836,4 C10.6404207,8.59975 5.25,7.9705 5.25,11.7985 C5.25,14.15275 9.09210836,16 9.09210836,16 Z" id="Shape"></path>
                        <path d="M10.5,20 C16.2992308,20 21,15.5230769 21,10 C21,4.47692308 16.2992308,0 10.5,0 C4.70076923,0 0,4.47692308 0,10 C0,15.5230769 4.70076923,20 10.5,20 Z M10.5,0.769230769 C15.8445,0.769230769 20.1923077,4.91 20.1923077,10 C20.1923077,15.09 15.8445,19.2307692 10.5,19.2307692 C5.1555,19.2307692 0.807692308,15.09 0.807692308,10 C0.807692308,4.91 5.1555,0.769230769 10.5,0.769230769 Z" id="Shape"></path>
                    </g>
                </g>
            </g>
        </g>
    </g>
</svg>